<svg width="20" height="19" viewBox="0 0 20 19" fill="none" xmlns="http://www.w3.org/2000/svg">
<path d="M14.6231 10.9091C14.4258 11.1003 14.3352 11.3767 14.3801 11.6479L15.0572 15.395C15.1143 15.7126 14.9803 16.034 14.7145 16.2176C14.454 16.408 14.1075 16.4308 13.8234 16.2785L10.4502 14.5192C10.3329 14.4567 10.2027 14.4232 10.0694 14.4194H9.863C9.79141 14.4301 9.72134 14.4529 9.65737 14.488L6.28343 16.2557C6.11664 16.3394 5.92776 16.3691 5.74269 16.3394C5.29182 16.2541 4.99098 15.8246 5.06486 15.3714L5.74269 11.6243C5.78762 11.3509 5.69699 11.0729 5.49974 10.8786L2.74956 8.21299C2.51955 7.98983 2.43958 7.65472 2.54469 7.35236C2.64674 7.05076 2.90721 6.83065 3.22176 6.78115L7.00696 6.23202C7.29485 6.20232 7.54771 6.02715 7.67718 5.7682L9.34511 2.34854C9.38471 2.27238 9.43574 2.20231 9.49743 2.1429L9.56597 2.08959C9.60177 2.04998 9.6429 2.01723 9.68859 1.99058L9.77161 1.96011L9.90108 1.9068H10.2217C10.5081 1.9365 10.7602 2.10787 10.8919 2.36377L12.582 5.7682C12.7038 6.01725 12.9407 6.19013 13.2141 6.23202L16.9993 6.78115C17.3192 6.82685 17.5865 7.04771 17.6924 7.35236C17.7921 7.65777 17.7061 7.99288 17.4715 8.21299L14.6231 10.9091Z" fill="#F6B76F"/>
</svg>
